# xmcd
#
# Track frame offsets: 
#        150
#        12917
#        25545
#        38012
#        51585
#        65857
#        79775
#        91670
#        106647
#        120837
#        135960
#        150305
#        163030
#        174845
#        187432
#        200680
#        211125
#        224097
#        237325
#        251797
#        267490
#        281592
#        294065
#        307912
#        320085
#        335442
#        348940
#        365440
#        379100
#
# Disc length: 5209 seconds
#
# Revision: 1
# Processed by: cddbd v1.5.2PL0 Copyright (c) Steve Scherf et al.
# Submitted via: ExactAudioCopyFreeDBPlugin 1.0
#
DISCID=a214571d
DTITLE=Various Artist - Der Jazz in Deutschland - Vol 1 CD 3 - Vom Ca
DTITLE=kewalk zum Jazz - Der Jazz Erobert Deutschland
DYEAR=2008
DGENRE=Jazz
TTITLE0=Orchester René Dumont - Wladiwostok
TTITLE1=Weintraubs Syncopators, Ltg: Friedrich Hollaender - Jackass Bl
TTITLE1=ues
TTITLE2=The New Yorkers - Ostrich Walk
TTITLE3=Billy Bartholomew's Delphians', Al Bowlly (voc) - Changes
TTITLE4=Marek Weber - Die Susi bläst das Saxophon
TTITLE5=Tanz-Orchester Mario Elke, Ltg: Egon Kaiser - Easy Goin'
TTITLE6=Regina-Orchester, Ltg: Paul Kley - Poor Old Bum!
TTITLE7=Lud Gluskin with his Orchestra - Tiger Rag
TTITLE8=Orchester Ben Berlin, Ltg: Herman Bick - You're The Cream In M
TTITLE8=y Coffee
TTITLE9=Orchester Red Roberts - Billy Barton, Frank Goedel, unbekannt (
TTITLE9=voc) - Ltg: Theo Mackeben - Sweetheart Of All My Dreams [I Love
TTITLE9=You, I Love You, I Love You]
TTITLE10=Orchester Teddy Kline - Tibor Lakos and Laszlo Mocsanyi (voc) - 
TTITLE10=I'm Doing What I'm Doing For Love
TTITLE11=Fred Jones und seine Jazz-Symphoniker, Leo Monosson (voc) - T
TTITLE11=here's A Rainbow Round My Shoulder [Du bist meine erste Liebe
TTITLE11=]
TTITLE12=Jac Presburg mit seinem Jazz-Orchester, Erwin Bolt (voc) - Am
TTITLE12=Sonntag will mein Süßer mit mir segeln geh'n
TTITLE13=Orchester Fred Bird Tibor Lakos and Laszlo Mocsanyi (voc): Ltg:
TTITLE13=Fritz Lehmann - Makin' Whoopee! [Wuppi]
TTITLE14=Harry Jackson's Tanz-Orchester - Kurt Mühlhardt (voc) - Ltg: Gé
TTITLE14=ua Komor - Es muß nicht Hummer sein
TTITLE15=Jazz-Orchester Carlo Minari - Okay Baby
TTITLE16=Mitja Nikisch und sein Orchester - Paul Hagedorn (voc) - Shoul
TTITLE16=d I? [Ich kann, ich will ...]
TTITLE17=Orchester Billy Barton - Billy Barton (voc) - I Lost My Gal Fr
TTITLE17=om Memphis
TTITLE18=Herry Head mit seinem Orchester - Ltg: Hermann Spitz - Sing, Y
TTITLE18=ou Sinners
TTITLE19=Jan and Patrick Hoffmann Band - Congo Love Song
TTITLE20=George Nettelmann und sein Orchester - Ich bin so scharf auf 
TTITLE20=Erika
TTITLE21=Jazzorchester des Hochschen Konservatoriums - Ltg: Mátyás Šeib
TTITLE21=er - Oh My
TTITLE22=Theo Mackben Jazzband - Fünf von der Jazzband
TTITLE23=Orchester Håkan von Eichwald - Austin Egen (voc) - Sailin' On 
TTITLE23=The Robert E. Lee
TTITLE24=Oscar Joost und sein Orchester - Kurt Mühlhardt (voc) - Heut' 
TTITLE24=bin ich gut aufgelegt
TTITLE25=Hans Bund - Harald M. Kirchstein and 2 Unbek. (voc) - Sailing On
TTITLE25=The 'Robert E. Lee' [Was hat der Paul bloß mit der Paula gem
TTITLE25=acht?]
TTITLE26=Orchester Ericc Borchard - Eric Borchard (voc) - Some Of These
TTITLE26=Days
TTITLE27=Paul Godwin Tanz-Orchester - Goofus (Novelty Foxtrot)
TTITLE28=Lajos Kiss mit seinem Orchester - Miss Louise Jordan (voc) - G
TTITLE28=ood-bye Blues
EXTD=YEAR: 2008
EXTT0=
EXTT1=
EXTT2=
EXTT3=
EXTT4=
EXTT5=
EXTT6=
EXTT7=
EXTT8=
EXTT9=
EXTT10=
EXTT11=
EXTT12=
EXTT13=
EXTT14=
EXTT15=
EXTT16=
EXTT17=
EXTT18=
EXTT19=
EXTT20=
EXTT21=
EXTT22=
EXTT23=
EXTT24=
EXTT25=
EXTT26=
EXTT27=
EXTT28=
PLAYORDER=
